<svg xmlns="http://www.w3.org/2000/svg" version="1.0" viewBox="0 0 192 192">
  <path fill="#fff" d="M-19.2-19.2h230.4v230.4H-19.2z"/>
  <path fill="#fff" d="M-19.2-19.2h230.4v230.4H-19.2z"/>
  <path fill="#00c300" d="M-19.2-19.2h230.4v230.4H-19.2z"/>
  <path fill="#fff" d="M31.944 123.118v-55.47h13.28v55.47Zm9.328 0v-10.594h26.562v10.594Zm0-23.204v-9.75h23.375v9.75Zm0-21.671V67.649h26.484v10.594Zm34.283 44.875v-55.47h13.203v24.626a33.3 33.3 0 0 0 5.547-4.625 33.982 33.982 0 0 0 4.453-5.75 37.255 37.255 0 0 0 3.234-6.719 39.292 39.292 0 0 0 1.89-7.531h14.97a41.34 41.34 0 0 1-2.578 8.328 39.71 39.71 0 0 1-10.047 14.031c-2.125 1.906-4.391 3.477-6.797 4.703v.922c2.57 0 4.797.297 6.672.89 1.882.587 3.468 1.466 4.75 2.641 1.289 1.18 2.367 2.61 3.234 4.297.875 1.68 1.535 3.606 1.984 5.782l3.282 13.875h-14.375l-2.016-10.422c-.398-2.57-.918-4.672-1.562-6.297-.637-1.625-1.641-2.828-3.016-3.61-1.375-.789-3.383-1.187-6.016-1.187h-3.61v21.516Zm50.753 0v-55.47h13.282v55.47Zm9.328 0v-10.594H162.2v10.594Zm0-23.204v-9.75h23.375v9.75Zm0-21.671V67.649h26.485v10.594Zm0 0"/>
</svg>